<svg width="294" height="189" viewBox="0 0 294 189" fill="none" xmlns="http://www.w3.org/2000/svg">
<path d="M37.8 170.803C68.04 170.803 114.335 157.5 114.335 104.782L71.7784 11.5318C69.381 6.23614 61.088 6.23613 58.6906 11.5318L16.1338 104.782C12.2764 111.593 10.08 119.346 10.08 127.524C10.08 146.039 21.2356 162.197 37.8 170.803Z" fill="#02ADFC"/>
<path d="M120.389 127.524C120.389 119.332 118.205 111.602 114.335 104.782C114.335 157.5 68.04 170.803 37.8 170.803C45.8802 175 55.2474 177.401 65.2345 177.401C95.6955 177.401 120.389 155.07 120.389 127.524Z" fill="#0596DA"/>
<path d="M65.2343 5.04053C68.6812 5.04053 72.3818 6.76167 74.0712 10.4858L116.586 103.644C120.624 110.799 122.909 118.918 122.909 127.524C122.909 156.694 96.8426 179.921 65.2343 179.921C55.0692 179.921 45.5044 177.53 37.1943 173.323H37.1845L36.6386 173.039L35.832 172.613C18.9928 163.532 7.56049 146.801 7.56049 127.524C7.56051 118.93 9.85838 110.788 13.8828 103.644L56.3945 10.4927L56.5585 10.1489C58.3136 6.65771 61.8931 5.04059 65.2343 5.04053Z" stroke="white" stroke-width="5.04"/>
<path d="M66.1786 135.331C66.4204 132.837 71.7891 117.623 88.4601 122.386" stroke="black" stroke-width="2.2082" stroke-linecap="round"/>
<circle cx="49.7253" cy="102.645" r="14.4452" fill="white"/>
<mask id="mask0_123_1130" style="mask-type:alpha" maskUnits="userSpaceOnUse" x="35" y="88" width="30" height="30">
<circle cx="49.7253" cy="102.645" r="14.4452" fill="white"/>
</mask>
<g mask="url(#mask0_123_1130)">
<circle cx="41.585" cy="99.7579" r="8.05599" fill="black"/>
</g>
<rect x="61.4521" y="97.1667" width="31.688" height="14.7228" rx="0.724531" transform="rotate(-1.06198 61.4521 97.1667)" fill="white"/>
<mask id="mask1_123_1130" style="mask-type:alpha" maskUnits="userSpaceOnUse" x="61" y="96" width="33" height="16">
<rect x="61.4521" y="97.1667" width="31.688" height="14.7228" rx="0.724531" transform="rotate(-1.06198 61.4521 97.1667)" fill="#D9D9D9"/>
</mask>
<g mask="url(#mask1_123_1130)">
<circle cx="66.3592" cy="102.645" r="8.31695" fill="black"/>
</g>
<path d="M195.328 54.1455C195.461 55.5215 195.528 56.9197 195.528 58.3401L195.461 59.5386V60.737C195.372 62.2018 195.328 64.3546 195.328 67.1954C195.328 70.3469 195.261 72.7439 195.128 74.3862L194.928 76.5834C194.706 80.1788 193.796 83.2415 192.198 85.7716C191.533 86.7038 190.534 87.5249 189.202 88.2351C187.871 88.9453 186.406 89.5224 184.808 89.9662C183.166 90.4545 181.235 90.6986 179.015 90.6986C177.994 90.6986 177.284 90.6764 176.885 90.6321C174.71 90.4545 172.757 89.9884 171.026 89.2338C169.339 88.4349 168.096 87.2808 167.297 85.7716C166.232 83.7742 165.655 81.2663 165.566 78.2479L165.433 76.1173C165.388 75.7622 165.366 75.0298 165.366 73.9201C165.144 70.2804 165.033 66.7959 165.033 63.4669C165.033 61.425 165.1 59.3832 165.233 57.3414C165.366 55.122 165.744 52.9692 166.365 50.883C167.031 48.7524 168.029 46.8881 169.361 45.2902L170.826 44.4912C173.667 43.1152 176.774 42.4272 180.147 42.4272C182.278 42.4272 184.275 42.7157 186.14 43.2927C188.048 43.8254 189.713 44.6244 191.133 45.6897C192.687 47.1101 193.708 48.5083 194.196 49.8843C194.729 51.3047 195.106 52.7251 195.328 54.1455ZM185.008 61.4029L184.741 57.9406C184.653 56.6978 184.342 55.6103 183.809 54.6781C183.321 53.7016 182.677 53.0136 181.878 52.6141C181.523 52.481 181.168 52.4144 180.813 52.4144C179.748 52.4144 178.705 52.7695 177.684 53.4797C177.151 53.9236 176.618 54.5672 176.086 55.4105C175.598 56.2095 175.22 57.0307 174.954 57.874C174.51 59.8271 174.288 62.3128 174.288 65.3312C174.288 66.8403 174.31 67.9722 174.355 68.7268V68.6602C174.532 69.548 174.665 70.7242 174.754 72.189L174.821 73.1212C174.998 75.3405 175.242 76.9829 175.553 78.0482V77.9816C175.953 78.8694 176.53 79.5574 177.284 80.0456C178.083 80.4895 178.927 80.7114 179.814 80.7114C180.525 80.7114 181.235 80.5561 181.945 80.2454C182.7 79.8903 183.343 79.402 183.876 78.7806C184.32 78.2035 184.586 77.7153 184.675 77.3158C184.808 76.9163 184.875 76.2949 184.875 75.4515C184.875 74.6969 184.897 74.1421 184.941 73.787L185.008 72.9214L185.074 71.6564V70.7242L185.141 69.4592V66.2633L185.008 61.7358V61.4029ZM227.846 84.6397C227.89 85.1724 227.913 85.9492 227.913 86.9701C227.913 87.9022 227.824 88.568 227.646 88.9675C227.513 89.3226 227.291 89.5446 226.98 89.6333C226.67 89.7221 226.137 89.7665 225.383 89.7665H224.916L223.851 89.6999L222.12 89.7665C219.368 89.8553 215.307 89.8997 209.936 89.8997C204.831 89.8997 200.77 89.8775 197.751 89.8331V88.3017C198.062 80.9778 198.217 73.6094 198.217 66.1967C198.217 64.0217 198.173 60.271 198.084 54.9445V53.3465V50.883C198.04 50.1284 198.018 48.7746 198.018 46.8215L197.951 42.4938C198.572 42.2718 199.438 42.0943 200.548 41.9611C201.657 41.7836 202.767 41.6948 203.877 41.6948C205.12 41.6948 206.362 41.7836 207.605 41.9611C208.848 42.1387 209.847 42.3828 210.601 42.6935C210.513 45.8894 210.468 48.4417 210.468 50.3504C210.468 53.0136 210.513 57.0085 210.601 62.335C210.646 64.9982 210.668 68.9265 210.668 74.1199V78.4477C212.133 78.4477 213.931 78.5143 216.061 78.6474L219.59 78.7806C221.454 78.9137 223.208 78.9803 224.85 78.9803C226.004 78.9803 227.025 78.9359 227.913 78.8472C227.913 79.8681 227.89 80.5339 227.846 80.8446V80.778C227.757 81.9765 227.735 82.842 227.779 83.3747L227.846 84.6397ZM259.268 89.2338C257.448 89.5446 255.051 89.6999 252.077 89.6999C250.568 89.6999 249.192 89.7443 247.949 89.8331C247.683 87.9244 247.483 84.551 247.35 79.7127C247.261 75.9842 247.062 73.1212 246.751 71.1237L244.221 70.9906C242.889 70.9906 241.868 71.0793 241.158 71.2569C241.025 72.5441 240.958 73.7648 240.958 74.9189C240.958 76.9163 240.981 78.4033 241.025 79.3798V81.1109L241.092 82.842C241.092 85.5053 240.981 87.5249 240.759 88.9009C239.738 89.478 238.495 89.7665 237.03 89.7665C236.32 89.7665 235.432 89.7221 234.367 89.6333L233.768 89.5668C232.969 89.478 232.436 89.4336 232.17 89.4336L230.039 89.5668C229.728 85.5719 229.418 79.5574 229.107 71.5232C228.796 63.4891 228.641 56.3427 228.641 50.084C228.641 46.533 228.663 44.0473 228.707 42.6269L236.231 42.4938C237.385 42.4938 238.428 42.6491 239.36 42.9598C239.582 44.8685 239.738 47.0657 239.827 49.5514L239.893 51.1493C239.982 53.1024 240.093 54.7447 240.226 56.0763C240.359 57.3636 240.581 58.784 240.892 60.3376L243.422 60.6039C243.866 60.6039 244.287 60.5595 244.687 60.4707C245.131 60.3819 245.553 60.3154 245.952 60.271H246.085C246.396 56.8975 246.551 53.635 246.551 50.4835C246.551 48.1754 246.485 45.6897 246.351 43.0264C247.372 42.7157 248.615 42.4716 250.08 42.294C251.545 42.1165 252.965 42.0277 254.341 42.0277C255.54 42.0277 256.583 42.0721 257.471 42.1609L259.268 89.2338ZM291.429 54.1455C291.562 55.5215 291.628 56.9197 291.628 58.3401L291.562 59.5386V60.737C291.473 62.2018 291.429 64.3546 291.429 67.1954C291.429 70.3469 291.362 72.7439 291.229 74.3862L291.029 76.5834C290.807 80.1788 289.897 83.2415 288.299 85.7716C287.633 86.7038 286.635 87.5249 285.303 88.2351C283.971 88.9453 282.507 89.5224 280.909 89.9662C279.266 90.4545 277.336 90.6986 275.116 90.6986C274.095 90.6986 273.385 90.6764 272.986 90.6321C270.811 90.4545 268.858 89.9884 267.126 89.2338C265.44 88.4349 264.197 87.2808 263.398 85.7716C262.333 83.7742 261.756 81.2663 261.667 78.2479L261.534 76.1173C261.489 75.7622 261.467 75.0298 261.467 73.9201C261.245 70.2804 261.134 66.7959 261.134 63.4669C261.134 61.425 261.201 59.3832 261.334 57.3414C261.467 55.122 261.844 52.9692 262.466 50.883C263.132 48.7524 264.13 46.8881 265.462 45.2902L266.927 44.4912C269.767 43.1152 272.875 42.4272 276.248 42.4272C278.379 42.4272 280.376 42.7157 282.24 43.2927C284.149 43.8254 285.814 44.6244 287.234 45.6897C288.788 47.1101 289.808 48.5083 290.297 49.8843C290.829 51.3047 291.207 52.7251 291.429 54.1455ZM281.108 61.4029L280.842 57.9406C280.753 56.6978 280.443 55.6103 279.91 54.6781C279.422 53.7016 278.778 53.0136 277.979 52.6141C277.624 52.481 277.269 52.4144 276.914 52.4144C275.849 52.4144 274.805 52.7695 273.785 53.4797C273.252 53.9236 272.719 54.5672 272.187 55.4105C271.698 56.2095 271.321 57.0307 271.055 57.874C270.611 59.8271 270.389 62.3128 270.389 65.3312C270.389 66.8403 270.411 67.9722 270.455 68.7268V68.6602C270.633 69.548 270.766 70.7242 270.855 72.189L270.922 73.1212C271.099 75.3405 271.343 76.9829 271.654 78.0482V77.9816C272.053 78.8694 272.63 79.5574 273.385 80.0456C274.184 80.4895 275.027 80.7114 275.915 80.7114C276.625 80.7114 277.336 80.5561 278.046 80.2454C278.8 79.8903 279.444 79.402 279.977 78.7806C280.42 78.2035 280.687 77.7153 280.776 77.3158C280.909 76.9163 280.975 76.2949 280.975 75.4515C280.975 74.6969 280.998 74.1421 281.042 73.787L281.108 72.9214L281.175 71.6564V70.7242L281.242 69.4592V66.2633L281.108 61.7358V61.4029Z" fill="#006BEF"/>
<path d="M200.099 120.213C200.099 123.065 197.542 125.377 194.388 125.377C191.235 125.377 188.678 123.065 188.678 120.213C188.678 117.362 191.235 115.05 194.388 115.05C197.542 115.05 200.099 117.362 200.099 120.213Z" fill="#02ADFC"/>
<path d="M193.711 108.205C193.959 107.656 194.818 107.656 195.066 108.205L199.472 117.859H189.305L193.711 108.205Z" fill="#02ADFC"/>
<path d="M184.89 123.011C186.494 125.535 187.551 128.077 188.063 130.635V130.584C188.336 131.437 188.506 132.545 188.574 133.91C188.506 134.933 188.472 135.7 188.472 136.212L188.421 137.031C188.421 137.27 188.387 138.071 188.319 139.436C188.25 140.8 188.08 142.148 187.807 143.478C187.159 145.388 186.255 147.264 185.095 149.106C183.969 150.914 182.622 152.79 181.053 154.735C178.187 154.803 175.834 154.837 173.992 154.837L170.308 154.888L166.317 154.939C165.703 150.471 165.396 144.842 165.396 138.054C165.396 135.086 165.413 132.869 165.447 131.402C165.481 130.072 165.498 127.787 165.498 124.546C165.498 123.727 165.464 122.499 165.396 120.862L165.345 119.327L165.703 119.276C167.511 118.798 169.608 118.56 171.996 118.56L173.327 118.611H174.708C175.152 118.645 175.834 118.662 176.755 118.662C177.676 118.662 178.358 118.645 178.801 118.611C180.064 118.952 181.275 119.566 182.434 120.453C183.594 121.306 184.515 122.295 185.197 123.42L184.89 123.011ZM180.234 137.184C180.234 136.57 180.166 135.973 180.029 135.393C179.757 133.961 179.433 132.801 179.057 131.914C178.682 130.993 178.102 130.396 177.318 130.123H177.42C176.601 130.055 175.987 130.021 175.578 130.021C174.896 130.021 174.452 130.055 174.248 130.123C174.316 131.351 174.35 132.511 174.35 133.603V134.933L174.299 136.314C174.265 137.099 174.248 138.276 174.248 139.845C174.248 141.346 174.231 142.489 174.196 143.273C174.708 143.478 175.066 143.58 175.271 143.58H175.936C176.482 143.58 176.874 143.529 177.113 143.427C177.659 143.29 178.273 142.676 178.955 141.585C179.808 140.288 180.234 138.822 180.234 137.184ZM221.474 154.888C220.383 155.127 219.206 155.246 217.944 155.246C216.443 155.246 214.806 155.059 213.032 154.683C212.793 154.035 212.418 152.671 211.906 150.59C211.394 148.475 210.985 147.077 210.678 146.394L209.655 146.343L208.785 146.394C208.649 146.804 208.427 147.81 208.12 149.413C207.881 150.744 207.642 151.835 207.403 152.688C207.165 153.507 206.824 154.257 206.38 154.939C206.039 155.008 205.527 155.042 204.845 155.042C204.538 155.042 203.873 155.008 202.85 154.939C199.882 154.803 198.228 154.735 197.886 154.735C197.886 154.564 197.92 154.172 197.989 153.558C198.057 152.91 198.159 152.193 198.296 151.409L199.421 144.962C200.308 139.674 201.144 135.069 201.929 131.147C202.747 127.224 203.805 123.079 205.101 118.713C205.578 118.645 206.227 118.611 207.045 118.611H207.352C209.57 118.611 211.736 118.525 213.85 118.355C214.26 119.958 214.635 121.544 214.976 123.113C215.317 124.648 215.624 126.03 215.897 127.258C216.989 131.999 217.722 135.155 218.097 136.724L221.474 154.888ZM210.78 139.845C210.03 133.023 209.672 129.612 209.706 129.612L209.655 129.1C209.655 129.1 209.621 129.509 209.552 130.328C209.45 132.886 209.297 134.916 209.092 136.417L208.631 139.845H210.78ZM236.354 136.161C237.821 136.161 239.475 136.229 241.317 136.366L242.955 136.468L243.824 136.519L243.927 137.594C243.961 137.969 244.029 138.788 244.131 140.05C244.234 141.278 244.285 142.335 244.285 143.222C244.285 144.962 244.148 146.684 243.876 148.39C243.637 149.925 243.04 151.221 242.085 152.279C241.13 153.336 239.919 154.138 238.452 154.683C235.962 155.434 233.659 155.809 231.544 155.809C229.907 155.809 228.423 155.553 227.093 155.042C224.398 153.848 222.641 151.767 221.823 148.799C221.584 147.878 221.379 146.684 221.209 145.218C221.209 145.593 221.021 142.54 220.646 136.059C220.646 134.967 220.663 134.097 220.697 133.449C220.765 130.379 220.936 128.128 221.209 126.695C221.686 123.966 222.795 121.954 224.534 120.657C225.831 119.702 227.604 119.054 229.856 118.713C230.64 118.611 231.442 118.56 232.261 118.56C235.672 118.56 238.469 119.429 240.652 121.169C242.835 122.875 243.927 125.314 243.927 128.486L243.824 130.123V130.84C243.586 130.874 243.296 130.891 242.955 130.891C242.613 130.891 242.306 130.891 242.034 130.891H239.578C238.281 130.891 237.036 130.823 235.842 130.686C235.024 127.889 234.103 126.49 233.079 126.49C232.909 126.49 232.721 126.473 232.516 126.439C232.312 126.405 232.124 126.388 231.954 126.388C231.408 126.388 230.93 126.593 230.521 127.002C230.487 127.036 230.367 127.446 230.163 128.23C229.515 130.379 229.191 133.551 229.191 137.747C229.191 139.828 229.259 141.551 229.395 142.915C229.634 145.2 230.095 146.65 230.777 147.264C231.118 147.469 231.391 147.605 231.595 147.674C231.971 147.708 232.414 147.691 232.926 147.622C233.472 147.52 233.949 147.384 234.358 147.213C234.938 146.974 235.314 146.429 235.484 145.576C235.586 145.166 235.689 144.638 235.791 143.99C235.893 143.341 235.928 142.949 235.893 142.813H234.665C233.403 142.881 232.431 142.779 231.749 142.506C231.681 141.789 231.647 140.902 231.647 139.845V139.282C231.647 139.146 231.647 138.924 231.647 138.617C231.681 138.276 231.647 137.645 231.544 136.724C231.817 136.724 232.397 136.656 233.284 136.519C234.648 136.28 235.672 136.161 236.354 136.161ZM269.431 120.248C269.601 123.898 269.686 127.275 269.686 130.379C269.686 136.28 269.397 141.841 268.817 147.06C268.544 149.413 267.589 151.392 265.951 152.995C264.348 154.564 262.267 155.468 259.709 155.707H259.76C259.146 155.775 258.583 155.809 258.072 155.809C256.059 155.809 254.132 155.485 252.29 154.837C250.448 154.223 248.913 153.268 247.685 151.972C246.491 150.675 245.86 149.089 245.791 147.213C245.791 144.723 245.826 140.988 245.894 136.007L245.945 132.682C246.013 129.066 246.047 126.388 246.047 124.648C246.047 122.397 246.03 120.743 245.996 119.685H247.275L250.345 119.583C252.017 119.583 253.484 119.77 254.746 120.146C254.609 123.966 254.541 126.9 254.541 128.946C254.541 133.893 254.763 139.367 255.206 145.371V145.32C255.411 146.002 255.718 146.531 256.127 146.906C256.537 147.247 256.98 147.418 257.458 147.418C258.003 147.418 258.515 147.196 258.993 146.753C259.47 146.309 259.794 145.746 259.965 145.064V145.115C260.101 141.977 260.204 137.014 260.272 130.226L260.323 126.951C260.323 125.314 260.357 123.062 260.425 120.197L261.5 120.043C261.977 120.043 262.625 119.992 263.444 119.89C264.843 119.753 265.678 119.702 265.951 119.736C267.418 119.736 268.441 119.907 269.021 120.248H269.431ZM293.078 154.888C291.987 155.127 290.81 155.246 289.548 155.246C288.047 155.246 286.409 155.059 284.636 154.683C284.397 154.035 284.022 152.671 283.51 150.59C282.998 148.475 282.589 147.077 282.282 146.394L281.259 146.343L280.389 146.394C280.252 146.804 280.031 147.81 279.724 149.413C279.485 150.744 279.246 151.835 279.007 152.688C278.769 153.507 278.427 154.257 277.984 154.939C277.643 155.008 277.131 155.042 276.449 155.042C276.142 155.042 275.477 155.008 274.453 154.939C271.486 154.803 269.831 154.735 269.49 154.735C269.49 154.564 269.524 154.172 269.593 153.558C269.661 152.91 269.763 152.193 269.9 151.409L271.025 144.962C271.912 139.674 272.748 135.069 273.532 131.147C274.351 127.224 275.409 123.079 276.705 118.713C277.182 118.645 277.83 118.611 278.649 118.611H278.956C281.173 118.611 283.339 118.525 285.454 118.355C285.864 119.958 286.239 121.544 286.58 123.113C286.921 124.648 287.228 126.03 287.501 127.258C288.593 131.999 289.326 135.155 289.701 136.724L293.078 154.888ZM282.384 139.845C281.634 133.023 281.276 129.612 281.31 129.612L281.259 129.1C281.259 129.1 281.225 129.509 281.156 130.328C281.054 132.886 280.9 134.916 280.696 136.417L280.235 139.845H282.384Z" fill="#006BEF"/>
</svg>
