<svg width="189" height="122" viewBox="0 0 189 122" fill="none" xmlns="http://www.w3.org/2000/svg">
<path d="M24.3186 109.886C43.7735 109.886 73.5575 101.328 73.5575 67.4117L46.1786 7.41901C44.6362 4.01202 39.3009 4.01202 37.7585 7.41901L10.3797 67.4117C7.89804 71.7932 6.48499 76.7814 6.48499 82.0425C6.48499 93.9539 13.6619 104.349 24.3186 109.886Z" fill="#02ADFC"/>
<path d="M77.4522 82.0425C77.4522 76.7723 76.0472 71.7988 73.5575 67.4117C73.5575 101.328 43.7735 109.886 24.3186 109.886C29.517 112.586 35.5434 114.131 41.9686 114.131C61.5657 114.131 77.4522 99.7644 77.4522 82.0425Z" fill="#0596DA"/>
<path d="M41.9684 3.24268C44.1858 3.24268 46.567 4.34986 47.6539 6.74561L75.0084 66.686C77.6039 71.2875 79.0738 76.5083 79.0739 82.0425C79.0739 100.809 62.3036 115.752 41.9684 115.752C35.4289 115.752 29.2755 114.214 23.9293 111.507H23.9225L23.5709 111.325L23.0524 111.05C12.219 105.208 4.86389 94.4442 4.86389 82.0425C4.8639 76.5144 6.34187 71.2771 8.9303 66.6812L36.2838 6.74561C37.3708 4.35008 39.751 3.24274 41.9684 3.24268Z" stroke="white" stroke-width="3.24248"/>
<path d="M42.576 87.0651C42.7315 85.4606 46.1855 75.6727 56.9108 78.737" stroke="black" stroke-width="1.42064" stroke-linecap="round"/>
<circle cx="31.9907" cy="66.0367" r="9.29333" fill="white"/>
<mask id="mask0_123_469" style="mask-type:alpha" maskUnits="userSpaceOnUse" x="22" y="56" width="20" height="20">
<circle cx="31.9907" cy="66.0367" r="9.29333" fill="white"/>
</mask>
<g mask="url(#mask0_123_469)">
<circle cx="26.7537" cy="64.1792" r="5.18282" fill="black"/>
</g>
<rect x="39.5352" y="62.5122" width="20.3864" height="9.47189" rx="0.466127" transform="rotate(-1.06198 39.5352 62.5122)" fill="white"/>
<mask id="mask1_123_469" style="mask-type:alpha" maskUnits="userSpaceOnUse" x="39" y="62" width="22" height="10">
<rect x="39.5352" y="62.5122" width="20.3864" height="9.47189" rx="0.466127" transform="rotate(-1.06198 39.5352 62.5122)" fill="#D9D9D9"/>
</mask>
<g mask="url(#mask1_123_469)">
<circle cx="42.6921" cy="66.0367" r="5.3507" fill="black"/>
</g>
<path d="M125.664 35.3033C125.75 36.1885 125.792 37.0881 125.792 38.0019L125.75 38.7729V39.544C125.693 40.4863 125.664 41.8713 125.664 43.699C125.664 45.7265 125.621 47.2685 125.535 48.3251L125.407 49.7387C125.264 52.0518 124.679 54.0222 123.651 55.6499C123.222 56.2496 122.58 56.7779 121.723 57.2348C120.866 57.6917 119.924 58.063 118.896 58.3485C117.839 58.6627 116.597 58.8197 115.169 58.8197C114.513 58.8197 114.056 58.8054 113.799 58.7769C112.399 58.6627 111.143 58.3628 110.029 57.8774C108.944 57.3633 108.144 56.6209 107.63 55.6499C106.945 54.3649 106.574 52.7514 106.517 50.8096L106.431 49.4389C106.402 49.2104 106.388 48.7392 106.388 48.0253C106.245 45.6836 106.174 43.4419 106.174 41.3002C106.174 39.9866 106.217 38.673 106.303 37.3594C106.388 35.9315 106.631 34.5465 107.031 33.2044C107.459 31.8337 108.102 30.6343 108.958 29.6062L109.901 29.0922C111.728 28.207 113.727 27.7643 115.898 27.7643C117.268 27.7643 118.553 27.9499 119.753 28.3212C120.981 28.6639 122.052 29.1779 122.965 29.8632C123.965 30.7771 124.622 31.6766 124.936 32.5618C125.278 33.4757 125.521 34.3895 125.664 35.3033ZM119.025 39.9723L118.853 37.7449C118.796 36.9453 118.596 36.2457 118.254 35.646C117.939 35.0177 117.525 34.5751 117.011 34.3181C116.783 34.2324 116.554 34.1896 116.326 34.1896C115.641 34.1896 114.97 34.418 114.313 34.8749C113.97 35.1605 113.627 35.5746 113.285 36.1172C112.971 36.6312 112.728 37.1595 112.556 37.7021C112.271 38.9585 112.128 40.5577 112.128 42.4996C112.128 43.4705 112.142 44.1987 112.171 44.6842V44.6413C112.285 45.2125 112.371 45.9692 112.428 46.9116L112.471 47.5113C112.585 48.9391 112.742 49.9957 112.942 50.6811V50.6382C113.199 51.2094 113.57 51.652 114.056 51.9661C114.57 52.2517 115.112 52.3945 115.683 52.3945C116.14 52.3945 116.597 52.2945 117.054 52.0946C117.54 51.8662 117.954 51.552 118.296 51.1523C118.582 50.781 118.753 50.4669 118.81 50.2099C118.896 49.9529 118.939 49.5531 118.939 49.0105C118.939 48.525 118.953 48.1681 118.982 47.9396L119.025 47.3828L119.067 46.5689V45.9692L119.11 45.1553V43.0993L119.025 40.1865V39.9723ZM146.585 54.9217C146.613 55.2644 146.627 55.7642 146.627 56.421C146.627 57.0207 146.57 57.449 146.456 57.706C146.37 57.9345 146.228 58.0773 146.028 58.1344C145.828 58.1915 145.485 58.22 145 58.22H144.7L144.014 58.1772L142.901 58.22C141.13 58.2771 138.517 58.3057 135.062 58.3057C131.778 58.3057 129.165 58.2914 127.223 58.2629V57.2777C127.423 52.5658 127.523 47.8254 127.523 43.0564C127.523 41.6572 127.494 39.2441 127.437 35.8173V34.7893V33.2044C127.409 32.7189 127.394 31.8479 127.394 30.5914L127.352 27.8072C127.751 27.6644 128.308 27.5501 129.022 27.4645C129.736 27.3503 130.45 27.2931 131.164 27.2931C131.964 27.2931 132.763 27.3503 133.563 27.4645C134.362 27.5787 135.005 27.7358 135.49 27.9357C135.433 29.9917 135.405 31.6338 135.405 32.8617C135.405 34.5751 135.433 37.1452 135.49 40.572C135.519 42.2854 135.533 44.8127 135.533 48.1538V50.9381C136.475 50.9381 137.632 50.9809 139.003 51.0666L141.273 51.1523C142.472 51.2379 143.6 51.2808 144.657 51.2808C145.399 51.2808 146.056 51.2522 146.627 51.1951C146.627 51.8519 146.613 52.2802 146.585 52.4801V52.4373C146.527 53.2083 146.513 53.7652 146.542 54.1079L146.585 54.9217ZM166.8 57.8774C165.629 58.0773 164.087 58.1772 162.174 58.1772C161.203 58.1772 160.318 58.2058 159.518 58.2629C159.347 57.0349 159.218 54.8646 159.133 51.7519C159.075 49.3532 158.947 47.5113 158.747 46.2262L157.119 46.1406C156.263 46.1406 155.606 46.1977 155.149 46.3119C155.063 47.14 155.02 47.9253 155.02 48.6678C155.02 49.9529 155.035 50.9095 155.063 51.5378V52.6515L155.106 53.7652C155.106 55.4786 155.035 56.7779 154.892 57.6632C154.235 58.0344 153.435 58.22 152.493 58.22C152.036 58.22 151.465 58.1915 150.78 58.1344L150.394 58.0915C149.88 58.0344 149.537 58.0059 149.366 58.0059L147.995 58.0915C147.796 55.5214 147.596 51.652 147.396 46.4832C147.196 41.3145 147.096 36.7168 147.096 32.6904C147.096 30.4058 147.11 28.8066 147.139 27.8928L151.979 27.8072C152.722 27.8072 153.393 27.9071 153.992 28.107C154.135 29.3349 154.235 30.7485 154.292 32.3477L154.335 33.3757C154.392 34.6322 154.464 35.6888 154.549 36.5455C154.635 37.3737 154.778 38.2875 154.978 39.2869L156.605 39.4583C156.891 39.4583 157.162 39.4297 157.419 39.3726C157.705 39.3155 157.976 39.2727 158.233 39.2441H158.319C158.519 37.0738 158.619 34.9749 158.619 32.9474C158.619 31.4624 158.576 29.8632 158.49 28.1498C159.147 27.9499 159.946 27.7929 160.889 27.6787C161.831 27.5644 162.745 27.5073 163.63 27.5073C164.401 27.5073 165.072 27.5359 165.643 27.593L166.8 57.8774ZM187.49 35.3033C187.576 36.1885 187.619 37.0881 187.619 38.0019L187.576 38.7729V39.544C187.519 40.4863 187.49 41.8713 187.49 43.699C187.49 45.7265 187.447 47.2685 187.362 48.3251L187.233 49.7387C187.091 52.0518 186.505 54.0222 185.477 55.6499C185.049 56.2496 184.406 56.7779 183.55 57.2348C182.693 57.6917 181.75 58.063 180.722 58.3485C179.666 58.6627 178.424 58.8197 176.996 58.8197C176.339 58.8197 175.882 58.8054 175.625 58.7769C174.226 58.6627 172.969 58.3628 171.856 57.8774C170.77 57.3633 169.971 56.6209 169.457 55.6499C168.771 54.3649 168.4 52.7514 168.343 50.8096L168.257 49.4389C168.229 49.2104 168.215 48.7392 168.215 48.0253C168.072 45.6836 168 43.4419 168 41.3002C168 39.9866 168.043 38.673 168.129 37.3594C168.215 35.9315 168.457 34.5465 168.857 33.2044C169.285 31.8337 169.928 30.6343 170.785 29.6062L171.727 29.0922C173.555 28.207 175.554 27.7643 177.724 27.7643C179.095 27.7643 180.38 27.9499 181.579 28.3212C182.807 28.6639 183.878 29.1779 184.792 29.8632C185.791 30.7771 186.448 31.6766 186.762 32.5618C187.105 33.4757 187.348 34.3895 187.49 35.3033ZM180.851 39.9723L180.68 37.7449C180.622 36.9453 180.423 36.2457 180.08 35.646C179.766 35.0177 179.352 34.5751 178.838 34.3181C178.609 34.2324 178.381 34.1896 178.152 34.1896C177.467 34.1896 176.796 34.418 176.139 34.8749C175.796 35.1605 175.454 35.5746 175.111 36.1172C174.797 36.6312 174.554 37.1595 174.383 37.7021C174.097 38.9585 173.954 40.5577 173.954 42.4996C173.954 43.4705 173.969 44.1987 173.997 44.6842V44.6413C174.112 45.2125 174.197 45.9692 174.254 46.9116L174.297 47.5113C174.411 48.9391 174.568 49.9957 174.768 50.6811V50.6382C175.025 51.2094 175.397 51.652 175.882 51.9661C176.396 52.2517 176.939 52.3945 177.51 52.3945C177.967 52.3945 178.424 52.2945 178.88 52.0946C179.366 51.8662 179.78 51.552 180.123 51.1523C180.408 50.781 180.58 50.4669 180.637 50.2099C180.722 49.9529 180.765 49.5531 180.765 49.0105C180.765 48.525 180.78 48.1681 180.808 47.9396L180.851 47.3828L180.894 46.5689V45.9692L180.937 45.1553V43.0993L180.851 40.1865V39.9723Z" fill="#F8F5F0"/>
<path d="M128.733 77.3393C128.733 79.174 127.088 80.6614 125.06 80.6614C123.031 80.6614 121.386 79.174 121.386 77.3393C121.386 75.5045 123.031 74.0171 125.06 74.0171C127.088 74.0171 128.733 75.5045 128.733 77.3393Z" fill="#006BEF"/>
<path d="M124.624 69.6134C124.783 69.2607 125.336 69.2607 125.495 69.6134L128.33 75.8245H121.789L124.624 69.6134Z" fill="#006BEF"/>
<path d="M118.949 78.6149C119.981 80.2388 120.661 81.8738 120.99 83.5197V83.4868C121.166 84.0354 121.275 84.7486 121.319 85.6264C121.275 86.2848 121.253 86.7786 121.253 87.1078L121.22 87.6345C121.22 87.7881 121.198 88.3038 121.155 89.1816C121.111 90.0594 121.001 90.9263 120.825 91.7822C120.408 93.0111 119.827 94.2181 119.081 95.4032C118.357 96.5663 117.49 97.7733 116.48 99.0242C114.637 99.0681 113.123 99.09 111.937 99.09L109.567 99.1229L107 99.1558C106.605 96.281 106.407 92.66 106.407 88.2928C106.407 86.3836 106.418 84.9571 106.44 84.0134C106.462 83.1576 106.473 81.6872 106.473 79.6024C106.473 79.0757 106.451 78.2857 106.407 77.2323L106.374 76.2447L106.605 76.2118C107.768 75.9046 109.117 75.751 110.654 75.751L111.51 75.7839H112.398C112.684 75.8058 113.123 75.8168 113.715 75.8168C114.308 75.8168 114.747 75.8058 115.032 75.7839C115.844 76.0033 116.623 76.3984 117.369 76.9689C118.115 77.5176 118.708 78.154 119.147 78.8782L118.949 78.6149ZM115.954 87.7332C115.954 87.3382 115.91 86.9541 115.822 86.5811C115.646 85.6594 115.438 84.9132 115.196 84.3426C114.955 83.7501 114.582 83.3661 114.077 83.1905H114.143C113.616 83.1466 113.221 83.1247 112.958 83.1247C112.519 83.1247 112.234 83.1466 112.102 83.1905C112.146 83.9805 112.168 84.7267 112.168 85.4289V86.2848L112.135 87.1736C112.113 87.6783 112.102 88.4355 112.102 89.445C112.102 90.4106 112.091 91.1457 112.069 91.6505C112.398 91.7822 112.629 91.848 112.76 91.848H113.188C113.54 91.848 113.792 91.8151 113.946 91.7492C114.297 91.6615 114.692 91.2664 115.131 90.5642C115.679 89.7303 115.954 88.7866 115.954 87.7332ZM142.485 99.1229C141.783 99.2765 141.026 99.3534 140.214 99.3534C139.248 99.3534 138.195 99.2327 137.054 98.9913C136.9 98.5743 136.659 97.6965 136.33 96.3578C136 94.9972 135.737 94.0974 135.54 93.6585L134.881 93.6256L134.322 93.6585C134.234 93.9218 134.091 94.5692 133.894 95.6007C133.74 96.4565 133.586 97.1588 133.433 97.7074C133.279 98.2341 133.06 98.7169 132.774 99.1558C132.555 99.1997 132.226 99.2217 131.787 99.2217C131.589 99.2217 131.161 99.1997 130.503 99.1558C128.594 99.0681 127.53 99.0242 127.31 99.0242C127.31 98.9144 127.332 98.6621 127.376 98.2671C127.42 97.8501 127.486 97.3892 127.573 96.8845L128.298 92.7368C128.868 89.3352 129.406 86.3726 129.911 83.8489C130.437 81.3251 131.118 78.6587 131.952 75.8497C132.259 75.8058 132.676 75.7839 133.202 75.7839H133.4C134.826 75.7839 136.22 75.729 137.581 75.6193C137.844 76.6507 138.085 77.6712 138.305 78.6807C138.524 79.6682 138.722 80.557 138.897 81.3471C139.6 84.3975 140.071 86.4275 140.313 87.4369L142.485 99.1229ZM135.605 89.445C135.123 85.0559 134.892 82.8613 134.914 82.8613L134.881 82.5321C134.881 82.5321 134.859 82.7955 134.815 83.3222C134.75 84.9681 134.651 86.2738 134.519 87.2394L134.223 89.445H135.605ZM152.058 87.0748C153.002 87.0748 154.066 87.1187 155.251 87.2065L156.305 87.2724L156.864 87.3053L156.93 87.9966C156.952 88.238 156.996 88.7646 157.062 89.5766C157.128 90.3667 157.16 91.047 157.16 91.6176C157.16 92.7368 157.073 93.845 156.897 94.9423C156.744 95.9299 156.359 96.7638 155.745 97.4441C155.131 98.1244 154.351 98.6401 153.408 98.9913C151.806 99.4741 150.324 99.7155 148.964 99.7155C147.91 99.7155 146.956 99.5509 146.1 99.2217C144.366 98.4536 143.236 97.1149 142.709 95.2057C142.556 94.6131 142.424 93.845 142.314 92.9014C142.314 93.1428 142.194 91.1787 141.952 87.009C141.952 86.3068 141.963 85.7471 141.985 85.3302C142.029 83.3551 142.139 81.9067 142.314 80.985C142.622 79.2293 143.335 77.9345 144.454 77.1006C145.288 76.4861 146.429 76.0692 147.878 75.8497C148.382 75.7839 148.898 75.751 149.425 75.751C151.619 75.751 153.419 76.3106 154.823 77.4298C156.228 78.5271 156.93 80.0962 156.93 82.1371L156.864 83.1905V83.6513C156.711 83.6733 156.524 83.6843 156.305 83.6843C156.085 83.6843 155.888 83.6843 155.712 83.6843H154.132C153.298 83.6843 152.497 83.6404 151.729 83.5526C151.202 81.7531 150.61 80.8533 149.951 80.8533C149.842 80.8533 149.721 80.8423 149.589 80.8204C149.458 80.7984 149.337 80.7875 149.227 80.7875C148.876 80.7875 148.569 80.9191 148.305 81.1825C148.284 81.2044 148.207 81.4678 148.075 81.9725C147.658 83.3551 147.45 85.396 147.45 88.0953C147.45 89.434 147.493 90.5422 147.581 91.4201C147.735 92.8904 148.031 93.8231 148.47 94.2181C148.69 94.3498 148.865 94.4376 148.997 94.4815C149.238 94.5034 149.523 94.4924 149.853 94.4485C150.204 94.3827 150.511 94.2949 150.774 94.1852C151.147 94.0316 151.389 93.6804 151.499 93.1318C151.564 92.8685 151.63 92.5283 151.696 92.1113C151.762 91.6944 151.784 91.442 151.762 91.3542H150.972C150.16 91.3981 149.534 91.3323 149.096 91.1567C149.052 90.6959 149.03 90.1253 149.03 89.445V89.0829C149.03 88.9951 149.03 88.8524 149.03 88.6549C149.052 88.4355 149.03 88.0295 148.964 87.4369C149.139 87.4369 149.512 87.3931 150.083 87.3053C150.961 87.1517 151.619 87.0748 152.058 87.0748ZM173.338 76.8373C173.448 79.1854 173.503 81.358 173.503 83.3551C173.503 87.1517 173.316 90.7288 172.943 94.0864C172.767 95.6007 172.153 96.8735 171.1 97.9049C170.068 98.9144 168.729 99.496 167.084 99.6496H167.116C166.721 99.6935 166.359 99.7155 166.03 99.7155C164.735 99.7155 163.495 99.507 162.31 99.09C161.125 98.695 160.138 98.0805 159.348 97.2466C158.58 96.4127 158.174 95.3922 158.13 94.1852C158.13 92.5832 158.152 90.1801 158.196 86.9761L158.229 84.8364C158.272 82.5102 158.294 80.7875 158.294 79.6682C158.294 78.2198 158.283 77.1555 158.261 76.4752H159.084L161.059 76.4093C162.135 76.4093 163.078 76.53 163.89 76.7714C163.803 79.2293 163.759 81.1166 163.759 82.4334C163.759 85.6155 163.901 89.1377 164.187 93.0001V92.9672C164.318 93.4061 164.516 93.7463 164.779 93.9877C165.043 94.2071 165.328 94.3169 165.635 94.3169C165.986 94.3169 166.315 94.1742 166.623 93.8889C166.93 93.6036 167.138 93.2415 167.248 92.8026V92.8355C167.336 90.8166 167.402 87.6235 167.446 83.2563L167.479 81.1496C167.479 80.0962 167.501 78.6478 167.544 76.8044L168.236 76.7056C168.543 76.7056 168.96 76.6727 169.487 76.6068C170.386 76.5191 170.924 76.4861 171.1 76.5081C172.043 76.5081 172.702 76.6178 173.075 76.8373H173.338ZM188.552 99.1229C187.849 99.2765 187.092 99.3534 186.28 99.3534C185.315 99.3534 184.261 99.2327 183.12 98.9913C182.967 98.5743 182.725 97.6965 182.396 96.3578C182.067 94.9972 181.803 94.0974 181.606 93.6585L180.948 93.6256L180.388 93.6585C180.3 93.9218 180.157 94.5692 179.96 95.6007C179.806 96.4565 179.653 97.1588 179.499 97.7074C179.346 98.2341 179.126 98.7169 178.841 99.1558C178.621 99.1997 178.292 99.2217 177.853 99.2217C177.656 99.2217 177.228 99.1997 176.569 99.1558C174.66 99.0681 173.596 99.0242 173.376 99.0242C173.376 98.9144 173.398 98.6621 173.442 98.2671C173.486 97.8501 173.552 97.3892 173.64 96.8845L174.364 92.7368C174.934 89.3352 175.472 86.3726 175.977 83.8489C176.504 81.3251 177.184 78.6587 178.018 75.8497C178.325 75.8058 178.742 75.7839 179.269 75.7839H179.466C180.893 75.7839 182.286 75.729 183.647 75.6193C183.91 76.6507 184.152 77.6712 184.371 78.6807C184.59 79.6682 184.788 80.557 184.964 81.3471C185.666 84.3975 186.138 86.4275 186.379 87.4369L188.552 99.1229ZM181.672 89.445C181.189 85.0559 180.958 82.8613 180.98 82.8613L180.948 82.5321C180.948 82.5321 180.926 82.7955 180.882 83.3222C180.816 84.9681 180.717 86.2738 180.585 87.2394L180.289 89.445H181.672Z" fill="#F8F5F0"/>
</svg>
