<svg width="702" height="993" viewBox="0 0 702 993" fill="none" xmlns="http://www.w3.org/2000/svg">
<g clip-path="url(#clip0_197_138)">
<path d="M519.111 264.698C524.267 264.698 530.277 267.301 533.074 273.451L573.449 361.923C577.702 369.548 580.124 378.221 580.124 387.418C580.123 419.123 551.983 443.406 519.111 443.406C508.235 443.406 497.972 440.79 489.071 436.166C470.889 426.72 458.097 408.648 458.097 387.418C458.097 378.231 460.533 369.542 464.768 361.931L505.147 273.451C507.943 267.3 513.954 264.698 519.111 264.698Z" fill="#006BEF" stroke="white" stroke-width="17"/>
</g>
<path d="M198.679 897.75C357.623 897.75 600.954 827.83 600.954 550.743L377.272 60.6118C364.671 32.7772 321.083 32.7772 308.481 60.6117L84.8005 550.743C64.5256 586.54 52.9812 627.292 52.9812 670.275C52.9812 767.589 111.616 852.519 198.679 897.75Z" fill="#02ADFC"/>
<path d="M632.773 670.275C632.773 627.218 621.294 586.585 600.954 550.743C600.954 827.83 357.623 897.75 198.679 897.75C241.149 919.813 290.384 932.431 342.877 932.431C502.982 932.431 632.773 815.06 632.773 670.275Z" fill="#0596DA"/>
<path d="M342.877 31.2358C359.535 31.2358 377.048 39.5355 385.005 57.0825L608.535 546.882C629.449 583.861 641.273 625.813 641.273 670.275C641.273 820.538 506.852 940.931 342.877 940.931C289.017 940.931 238.438 927.984 194.76 905.292C105.286 858.809 44.4813 771.192 44.4812 670.275C44.4812 625.881 56.3739 583.812 77.2185 546.884L300.749 57.0825C308.705 39.5355 326.218 31.2359 342.877 31.2358Z" stroke="white" stroke-width="17"/>
<path d="M281 732C338.791 672.655 408.782 666.41 445.274 701.225" stroke="black" stroke-width="11.6064" stroke-linecap="round"/>
<g opacity="0.45">
<path fill-rule="evenodd" clip-rule="evenodd" d="M490 546.963C490 501.144 452.856 464 407.036 464C370.455 464 339.404 487.676 328.37 520.54C325.583 528.84 324.073 537.725 324.073 546.963C324.073 563.271 328.778 578.48 336.905 591.306C342.469 600.088 349.637 607.753 357.997 613.889H456.076C476.646 598.79 490 574.436 490 546.963Z" fill="white"/>
<path d="M357.997 613.889C371.734 623.972 388.69 629.927 407.036 629.927C425.383 629.927 442.339 623.972 456.076 613.889H357.997Z" fill="white"/>
<mask id="mask0_197_138" style="mask-type:alpha" maskUnits="userSpaceOnUse" x="324" y="464" width="166" height="166">
<circle cx="407.036" cy="546.963" r="82.9634" fill="white"/>
</mask>
<g mask="url(#mask0_197_138)">
<circle cx="370.341" cy="500.784" r="46.2681" fill="black"/>
</g>
</g>
<path fill-rule="evenodd" clip-rule="evenodd" d="M350.927 546.963C350.927 501.144 313.783 464 267.963 464C231.382 464 200.331 487.676 189.297 520.54C186.51 528.84 185 537.725 185 546.963C185 563.271 189.705 578.48 197.832 591.306C203.396 600.088 210.564 607.753 218.924 613.889H317.003C337.573 598.79 350.927 574.436 350.927 546.963Z" fill="white"/>
<path d="M218.924 613.889C232.661 623.972 249.617 629.927 267.963 629.927C286.31 629.927 303.266 623.972 317.003 613.889H218.924Z" fill="white"/>
<mask id="mask1_197_138" style="mask-type:alpha" maskUnits="userSpaceOnUse" x="185" y="464" width="166" height="166">
<circle cx="267.963" cy="546.963" r="82.9634" fill="white"/>
</mask>
<g mask="url(#mask1_197_138)">
<circle cx="286.768" cy="546.768" r="36.7681" fill="black"/>
</g>
<path fill-rule="evenodd" clip-rule="evenodd" d="M324 546.963C324 501.144 361.144 464 406.963 464C443.544 464 474.596 487.676 485.63 520.54C488.417 528.84 489.927 537.725 489.927 546.963C489.927 563.271 485.222 578.48 477.095 591.306C471.531 600.088 464.363 607.753 456.003 613.889H357.924C337.353 598.79 324 574.436 324 546.963Z" fill="white"/>
<path d="M456.003 613.889C442.266 623.972 425.31 629.927 406.963 629.927C388.617 629.927 371.661 623.972 357.924 613.889H456.003Z" fill="white"/>
<mask id="mask2_197_138" style="mask-type:alpha" maskUnits="userSpaceOnUse" x="324" y="464" width="166" height="166">
<circle cx="82.9634" cy="82.9634" r="82.9634" transform="matrix(-1 0 0 1 489.927 464)" fill="white"/>
</mask>
<g mask="url(#mask2_197_138)">
<circle cx="36.7681" cy="36.7681" r="36.7681" transform="matrix(-1 0 0 1 424.927 510)" fill="black"/>
</g>
<path d="M492.99 428.623C521.782 428.623 565.86 415.958 565.86 365.765L525.341 276.98C523.058 271.937 515.163 271.937 512.88 276.98L472.361 365.765C468.688 372.249 466.597 379.631 466.597 387.417C466.597 405.045 477.219 420.43 492.99 428.623Z" fill="#006BEF"/>
<path d="M571.624 387.417C571.624 379.618 569.545 372.257 565.86 365.765C565.86 415.958 521.782 428.623 492.99 428.623C500.683 432.62 509.602 434.906 519.11 434.906C548.113 434.906 571.624 413.644 571.624 387.417Z" fill="#006BEF"/>
<defs>
<clipPath id="clip0_197_138">
<rect width="144" height="198" fill="white" transform="translate(457 248)"/>
</clipPath>
</defs>
</svg>
