<svg width="765" height="1224" viewBox="0 0 765 1224" fill="none" xmlns="http://www.w3.org/2000/svg">
<g clip-path="url(#clip0_197_136)">
<path d="M224.679 1128.75C383.623 1128.75 626.954 1058.83 626.954 781.743L403.272 291.612C390.671 263.777 347.083 263.777 334.481 291.612L110.801 781.743C90.5256 817.54 78.9812 858.292 78.9812 901.275C78.9812 998.589 137.616 1083.52 224.679 1128.75Z" fill="#02ADFC"/>
<path d="M658.773 901.275C658.773 858.218 647.294 817.585 626.954 781.743C626.954 1058.83 383.623 1128.75 224.679 1128.75C267.149 1150.81 316.384 1163.43 368.877 1163.43C528.982 1163.43 658.773 1046.06 658.773 901.275Z" fill="#0596DA"/>
<path d="M368.877 262.236C385.535 262.236 403.048 270.536 411.005 288.083L634.535 777.882C655.449 814.861 667.273 856.813 667.273 901.275C667.273 1051.54 532.852 1171.93 368.877 1171.93C315.017 1171.93 264.438 1158.98 220.76 1136.29C131.286 1089.81 70.4813 1002.19 70.4812 901.275C70.4812 856.881 82.3739 814.812 103.219 777.884L326.749 288.083C334.705 270.536 352.218 262.236 368.877 262.236Z" stroke="white" stroke-width="17"/>
<path d="M404 972.5C405.486 957.168 439 896 516.41 890.539" stroke="black" stroke-width="10.0562" stroke-linecap="round"/>
<path fill-rule="evenodd" clip-rule="evenodd" d="M375.927 777.963C375.927 812.882 354.354 842.762 323.809 855.003L217.827 813.187C212.806 802.495 210 790.557 210 777.963C210 771.51 210.737 765.23 212.131 759.2L292.963 695C338.783 695 375.927 732.144 375.927 777.963Z" fill="white"/>
<mask id="mask0_197_136" style="mask-type:alpha" maskUnits="userSpaceOnUse" x="210" y="695" width="166" height="155">
<path fill-rule="evenodd" clip-rule="evenodd" d="M375.927 777.963C375.927 808.393 359.544 834.997 335.117 849.435L215.635 808.08C211.997 798.744 210 788.587 210 777.963C210 771.51 210.737 765.23 212.131 759.2L292.963 695C338.783 695 375.927 732.144 375.927 777.963Z" fill="white"/>
</mask>
<g mask="url(#mask0_197_136)">
<circle cx="256.268" cy="731.784" r="46.2681" fill="black"/>
</g>
<path fill-rule="evenodd" clip-rule="evenodd" d="M516 777.963C516 732.144 478.856 695 433.036 695C396.455 695 365.404 718.676 354.37 751.54C351.583 759.84 350.073 768.725 350.073 777.963C350.073 794.271 354.778 809.48 362.905 822.306C368.469 831.088 375.637 838.753 383.997 844.889H482.076C502.646 829.79 516 805.436 516 777.963Z" fill="white"/>
<mask id="mask1_197_136" style="mask-type:alpha" maskUnits="userSpaceOnUse" x="350" y="695" width="166" height="166">
<circle cx="433.036" cy="777.963" r="82.9634" fill="white"/>
</mask>
<g mask="url(#mask1_197_136)">
<circle cx="396.341" cy="731.784" r="46.2681" fill="black"/>
</g>
<path d="M532.356 218.941C534.141 208.993 536.054 200.704 538.095 194.072C540.135 187.185 543.451 180.043 548.042 172.646L547.66 173.029C549.19 170.223 552.761 165.122 558.372 157.725L561.051 154.281C567.682 145.609 572.656 138.467 575.972 132.856C579.288 126.989 580.946 121.378 580.946 116.021C580.946 108.879 577.247 103.905 569.851 101.1C567.555 100.334 565.642 99.9518 564.111 99.9518C561.306 99.9518 559.01 100.845 557.225 102.63C555.439 104.416 553.271 107.221 550.72 111.047C550.21 111.557 549.318 112.833 548.042 114.873C546.767 116.659 545.364 118.189 543.834 119.465C542.303 120.74 540.645 121.633 538.86 122.143C532.228 122.653 526.234 122.908 520.878 122.908C516.541 122.908 510.547 122.653 502.895 122.143L493.713 121.378L483.383 120.23C484.148 106.456 488.484 93.1926 496.391 80.4392C504.298 67.6858 514.883 57.3556 528.147 49.4485C541.41 41.2863 555.694 37.2052 570.998 37.2052C585.792 37.2052 599.438 40.266 611.937 46.3877C624.69 52.5093 634.765 60.9265 642.162 71.6393C649.814 82.3522 653.64 94.3404 653.64 107.604C653.64 123.928 647.136 140.125 634.128 156.194L621.884 170.351C618.058 174.177 614.487 178.258 611.171 182.594C606.835 188.715 603.264 195.475 600.459 202.872C597.908 210.014 595.612 218.558 593.572 228.506L593.189 229.654C592.169 232.715 591.659 235.138 591.659 236.923C591.659 238.454 592.041 240.367 592.807 242.662C588.215 243.427 582.731 243.937 576.355 244.193C570.233 244.448 564.877 244.448 560.285 244.193H535.034C533.503 242.662 532.483 241.132 531.973 239.601C531.718 238.071 531.59 236.158 531.59 233.862L532.356 218.941ZM532.356 311.53C531.335 305.409 530.825 298.267 530.825 290.105L531.208 280.922V273.27L531.59 268.679V264.853C538.477 261.792 549.063 260.262 563.346 260.262C577.12 260.262 585.792 261.155 589.363 262.94C589.618 263.195 589.873 263.96 590.128 265.236C590.383 266.511 590.511 267.914 590.511 269.444C590.511 271.485 590.256 276.076 589.746 283.218L587.45 311.913L532.356 311.53Z" fill="#FDC005"/>
<path d="M634.174 326.086C635.981 320.246 637.741 315.41 639.456 311.579C641.189 307.596 643.707 303.553 647.01 299.451L646.752 299.652C647.877 298.081 650.398 295.282 654.313 291.256L656.175 289.386C660.796 284.669 664.31 280.749 666.715 277.625C669.138 274.348 670.548 271.101 670.943 267.885C671.471 263.598 669.618 260.339 665.384 258.108C664.062 257.479 662.942 257.108 662.023 256.996C660.339 256.788 658.895 257.155 657.691 258.095C656.487 259.035 654.979 260.559 653.165 262.668C652.821 262.937 652.191 263.636 651.275 264.767C650.377 265.745 649.422 266.56 648.409 267.213C647.396 267.866 646.335 268.279 645.225 268.454C641.206 268.27 637.589 267.981 634.373 267.585C631.77 267.265 628.19 266.67 623.634 265.798L618.178 264.661L612.061 263.21C613.537 254.997 617.119 247.354 622.808 240.282C628.497 233.209 635.614 227.789 644.16 224.021C652.726 220.1 661.602 218.704 670.79 219.834C679.671 220.926 687.638 223.771 694.689 228.369C701.894 232.986 707.321 238.783 710.971 245.76C714.774 252.757 716.186 260.236 715.207 268.199C714.002 277.999 708.901 287.243 699.905 295.929L691.51 303.524C688.93 305.539 686.485 307.725 684.175 310.084C681.119 313.439 678.477 317.233 676.246 321.466C674.188 325.566 672.179 330.526 670.219 336.347L669.905 337.008C669.066 338.771 668.581 340.188 668.449 341.259C668.336 342.178 668.425 343.355 668.715 344.79C665.902 344.91 662.572 344.811 658.725 344.494C655.031 344.195 651.815 343.8 649.078 343.308L633.918 341.443C633.112 340.412 632.613 339.418 632.419 338.461C632.379 337.523 632.444 336.366 632.613 334.987L634.174 326.086ZM627.339 381.672C627.178 377.921 627.399 373.596 628.002 368.696L628.91 363.212L629.474 358.618L630.043 355.89L630.326 353.593C634.686 352.263 641.154 352.126 649.729 353.181C657.998 354.197 663.139 355.374 665.151 356.709C665.285 356.881 665.381 357.359 665.44 358.144C665.499 358.928 665.472 359.78 665.359 360.699C665.209 361.924 664.717 364.661 663.883 368.911L660.387 385.969L627.339 381.672Z" fill="#FDC005"/>
</g>
<defs>
<clipPath id="clip0_197_136">
<rect width="765" height="1224" fill="white"/>
</clipPath>
</defs>
</svg>
