<svg width="48" height="49" viewBox="0 0 48 49" fill="none" xmlns="http://www.w3.org/2000/svg">
<path d="M17.4736 2.38208C18.5841 2.38208 19.7795 2.91101 20.3965 4.06665C21.5932 6.30845 23.1611 8.85861 24.7793 10.4768C26.3975 12.095 28.9477 13.6629 31.1895 14.8596C32.3449 15.4765 32.8739 16.6712 32.874 17.7815C32.874 18.8919 32.3451 20.0874 31.1895 20.7043C28.9477 21.9011 26.3975 23.469 24.7793 25.0872C23.1611 26.7054 21.5932 29.2555 20.3965 31.4973C19.7795 32.6529 18.5841 33.1819 17.4736 33.1819C16.3633 33.1817 15.1687 32.6527 14.5518 31.4973C13.355 29.2555 11.7871 26.7054 10.1689 25.0872C8.55075 23.469 6.00059 21.9011 3.75879 20.7043C2.60315 20.0874 2.07422 18.8919 2.07422 17.7815C2.07436 16.6712 2.60332 15.4765 3.75879 14.8596C6.00059 13.6629 8.55075 12.095 10.1689 10.4768C11.7871 8.85861 13.355 6.30845 14.5518 4.06665C15.1687 2.91118 16.3633 2.38223 17.4736 2.38208Z" fill="#FDC005" stroke="white" stroke-width="2"/>
<path d="M37.553 1.82544C38.0899 0.724806 39.6928 0.724857 40.2297 1.82544C40.7208 2.83219 41.5055 4.2555 42.2932 5.04321C43.0809 5.83088 44.5042 6.61559 45.511 7.10669C46.6117 7.64361 46.6117 9.24653 45.511 9.78345C44.5042 10.2745 43.0809 11.0592 42.2932 11.8469C41.5055 12.6346 40.7208 14.0579 40.2297 15.0647C39.6928 16.1654 38.0899 16.1654 37.553 15.0647C37.0619 14.0579 36.2772 12.6346 35.4895 11.8469C34.7018 11.0593 33.2785 10.2745 32.2717 9.78345C31.1711 9.24648 31.1711 7.64361 32.2717 7.10669C33.2785 6.61559 34.7018 5.83091 35.4895 5.04321C36.2772 4.25552 37.0619 2.83223 37.553 1.82544Z" fill="#FDC005" stroke="white" stroke-width="2"/>
<path d="M23.3011 33.8254C23.8381 32.7248 25.4409 32.7249 25.9779 33.8254C26.469 34.8322 27.2537 36.2555 28.0414 37.0432C28.8291 37.8309 30.2524 38.6156 31.2592 39.1067C32.3599 39.6436 32.3599 41.2465 31.2592 41.7834C30.2524 42.2745 28.8291 43.0592 28.0414 43.8469C27.2537 44.6346 26.469 46.0579 25.9779 47.0647C25.441 48.1654 23.8381 48.1654 23.3011 47.0647C22.81 46.0579 22.0253 44.6346 21.2377 43.8469C20.45 43.0593 19.0266 42.2745 18.0199 41.7834C16.9193 41.2465 16.9193 39.6436 18.0199 39.1067C19.0267 38.6156 20.45 37.8309 21.2377 37.0432C22.0254 36.2555 22.8101 34.8322 23.3011 33.8254Z" fill="#FDC005" stroke="white" stroke-width="2"/>
</svg>
