<svg width="48" height="49" viewBox="0 0 48 49" fill="none" xmlns="http://www.w3.org/2000/svg">
<path d="M29.8629 45.98C28.7524 45.98 27.557 45.4511 26.94 44.2954C25.7433 42.0536 24.1754 39.5035 22.5572 37.8853C20.939 36.2671 18.3888 34.6992 16.147 33.5024C14.9916 32.8855 14.4626 31.6909 14.4625 30.5806C14.4625 29.4701 14.9914 28.2747 16.147 27.6577C18.3888 26.461 20.939 24.8931 22.5572 23.2749C24.1754 21.6567 25.7433 19.1065 26.94 16.8647C27.557 15.7091 28.7524 15.1802 29.8629 15.1802C30.9731 15.1803 32.1678 15.7093 32.7847 16.8647C33.9815 19.1065 35.5494 21.6567 37.1675 23.2749C38.7857 24.8931 41.3359 26.461 43.5777 27.6577C44.7333 28.2747 45.2623 29.4701 45.2623 30.5806C45.2621 31.6909 44.7332 32.8855 43.5777 33.5024C41.3359 34.6992 38.7857 36.2671 37.1675 37.8853C35.5493 39.5035 33.9815 42.0536 32.7847 44.2954C32.1678 45.4509 30.9732 45.9798 29.8629 45.98Z" fill="#FDC005" stroke="white" stroke-width="2"/>
<path d="M9.78363 44.0649C9.24671 45.1656 7.64384 45.1655 7.10687 44.0649C6.6158 43.0582 5.83106 41.6349 5.0434 40.8472C4.25573 40.0595 2.83241 39.2748 1.82562 38.7837C0.724891 38.2468 0.724891 36.6439 1.82562 36.1069C2.83241 35.6158 4.25571 34.8311 5.0434 34.0435C5.83108 33.2558 6.61578 31.8325 7.10687 30.8257C7.64379 29.725 9.24671 29.725 9.78363 30.8257C10.2747 31.8325 11.0594 33.2558 11.8471 34.0435C12.6348 34.8311 14.0581 35.6159 15.0649 36.1069C16.1655 36.6439 16.1655 38.2468 15.0649 38.7837C14.0581 39.2748 12.6348 40.0595 11.8471 40.8472C11.0594 41.6349 10.2747 43.0582 9.78363 44.0649Z" fill="#FDC005" stroke="white" stroke-width="2"/>
<path d="M20.8123 15.0649C20.2753 16.1656 18.6725 16.1655 18.1355 15.0649C17.6444 14.0582 16.8597 12.6349 16.072 11.8472C15.2844 11.0595 13.861 10.2748 12.8542 9.78369C11.7535 9.24677 11.7535 7.64385 12.8542 7.10693C13.861 6.61584 15.2843 5.83115 16.072 5.04346C16.8597 4.25577 17.6444 2.83247 18.1355 1.82568C18.6724 0.724952 20.2753 0.724952 20.8123 1.82568C21.3034 2.83247 22.0881 4.25579 22.8757 5.04346C23.6634 5.83112 25.0868 6.61586 26.0935 7.10693C27.1941 7.64391 27.1941 9.24677 26.0935 9.78369C25.0867 10.2748 23.6634 11.0595 22.8757 11.8472C22.088 12.6349 21.3034 14.0582 20.8123 15.0649Z" fill="#FDC005" stroke="white" stroke-width="2"/>
</svg>
